<?xml version="1.0" encoding="UTF-8" standalone="no"?>
<svg version="1.1" xmlns="http://www.w3.org/2000/svg" xmlns:xlink="http://www.w3.org/1999/xlink" viewBox="-807.0501 -807.0501 1614.1002 1614.1002">
<g id="Shutter">
<title>Basic Shutter Icon</title>
<path id="clona" d="m-167.9502-290.8981 0.7925 0c17.7064-11.7336 154.6073-101.3115 316.7205-175.4233 101.92472-46.5958 193.85302-78.1162 273.23182-93.6854 51.2694-10.0563 97.4708-13.4343 138.3307-10.1849-144.3978-142.1157-342.5173-229.8083-561.12532-229.8083-60.0491 0-118.5476 6.6301-174.817 19.173-29.582 34.9311-54.8083 82.5997-75.3447 142.5306-25.5801 74.6484-43.8427 168.0583-54.2801 277.6346-12.699 133.3133-10.5593 258.618-8.2264 320.423l143.7965-249.063-0.2115-0.3142c0.0487-0.0328 0.2673-0.1794 0.6399-0.4278l0.4931-0.8543z"/>
<use transform="rotate(60)" xlink:href="#clona"/>
<use transform="rotate(120)" xlink:href="#clona"/>
<use transform="rotate(180)" xlink:href="#clona"/>
<use transform="rotate(240)" xlink:href="#clona"/>
<use transform="rotate(300)" xlink:href="#clona"/>
</g>
</svg>